# xmcd
#
# Track frame offsets: 
#        150
#        18725
#        35691
#        55058
#        76685
#        98623
#        117365
#        135086
#        154683
#        175230
#
# Disc length: 2561 seconds
#
# Revision: 2
# Processed by: cddbd v1.5.2PL0 Copyright (c) Steve Scherf et al.
# Submitted via: ExactAudioCopy v1.0b3
#
DISCID=6f09ff0a
DTITLE=Various Artist - Nho Ve Em
DYEAR=1900
DGENRE=Blues
TTITLE0=Johnny Dung - Nho ve em
TTITLE1=Tu Quyen - Bay gio con yeu
TTITLE2=Minh Tuyet - Phut ban dau
TTITLE3=Tu Quyen - Khi tinh yeu ta tu
TTITLE4=Johnny Dung - Tien ban len duong
TTITLE5=Bao Huy - Kiep ve sau
TTITLE6=Minh Tuyet - Tinh vo tan
TTITLE7=Tu Quyen - Tim dau phut vui xua
TTITLE8=Johnny Dung - Tinh ban
TTITLE9=Tu Quyen - Mai hoa
EXTD=ID3G:   0
EXTT0=
EXTT1=
EXTT2=
EXTT3=
EXTT4=
EXTT5=
EXTT6=
EXTT7=
EXTT8=
EXTT9=
PLAYORDER=
